<svg width="240" height="48" viewBox="0 0 240 48" fill="none" xmlns="http://www.w3.org/2000/svg">
  <!-- Icon -->
  <rect x="2" y="2" width="44" height="44" rx="10" fill="#2C3E7D"/>
  <path d="M20 16C20 15.1716 20.6716 14.5 21.5 14.5H23.5C24.3284 14.5 25 15.1716 25 16V26C25 28.7614 22.7614 31 20 31C17.2386 31 15 28.7614 15 26V24.5H20V26C20 26.4142 20.3358 26.75 20.75 26.75C21.1642 26.75 21.5 26.4142 21.5 26V16H20Z" fill="white"/>
  <circle cx="37" cy="16" r="6.5" fill="#4A9FD8"/>
  <path d="M37 13.5V16L38.5 17.5" stroke="white" stroke-width="1.5" stroke-linecap="round" stroke-linejoin="round"/>
  
  <!-- Text JURIPASS -->
  <text x="56" y="32" font-family="system-ui, -apple-system, 'Segoe UI', sans-serif" font-size="22" font-weight="700" letter-spacing="-0.5">
    <tspan fill="#4A9FD8">JURI</tspan><tspan fill="#2C3E7D">PASS</tspan>
  </text>
</svg>
